<?xml version="1.0" standalone="no"?><!DOCTYPE svg PUBLIC "-//W3C//DTD SVG 1.1//EN" "http://www.w3.org/Graphics/SVG/1.1/DTD/svg11.dtd"><svg t="1646468120488" class="icon" viewBox="0 0 1024 1024" version="1.1" xmlns="http://www.w3.org/2000/svg" p-id="7167" xmlns:xlink="http://www.w3.org/1999/xlink" width="200" height="200"><defs><style type="text/css"></style></defs><path d="M0 0h1024v1024H0z" fill="#FFFFFF" p-id="7168"></path><path d="M984 974H40a40 40 0 0 1 0-80h944a40 40 0 0 1 0 80z" fill="#505873" p-id="7169"></path><path d="M920 846H552a40 40 0 0 1 0-80h368a40 40 0 0 1 0 80z" fill="#FF402A" p-id="7170"></path><path d="M185.806 576.046l36.744 36.744 125.352 125.35 36.74 36.744-50.19 13.448-171.234 45.88-50.19 13.45 13.448-50.19 45.882-171.234 13.448-50.192z" fill="#D8DDE3" p-id="7171"></path><path d="M155.454 805.236l171.234-45.88L201.336 634l-45.88 171.234m-42.428 42.426a60 60 0 0 1-15.53-57.956l45.882-171.232a60 60 0 0 1 100.382-26.898l125.352 125.352a60 60 0 0 1-26.898 100.38l-171.232 45.884a60 60 0 0 1-57.956-15.53z" fill="#505873" p-id="7172"></path><path d="M328.972 731.732l-93.338-93.338c-19.494-19.494-19.494-51.216 0-70.71L659.9 143.42c19.496-19.496 51.216-19.496 70.712 0l93.338 93.338c19.494 19.496 19.494 51.216 0 70.71L399.684 731.732c-19.496 19.496-51.216 19.496-70.712 0z" fill="#FFFFFF" p-id="7173"></path><path d="M702.326 171.704a10.012 10.012 0 0 0-14.144 0L263.92 595.968a10.012 10.012 0 0 0 0 14.142l93.34 93.34a10.012 10.012 0 0 0 14.14 0l424.266-424.266a10.012 10.012 0 0 0 0-14.14l-93.34-93.34m56.57-56.568l93.338 93.338c35.146 35.146 35.146 92.132 0 127.28L427.968 760.014c-35.148 35.148-92.132 35.148-127.28 0l-93.338-93.338c-35.146-35.146-35.146-92.132 0-127.28L631.614 115.138c35.148-35.148 92.132-35.148 127.28 0z" fill="#505873" p-id="7174"></path></svg>